# Blender v2.91.0 OBJ File: 'Trim.blend'
# www.blender.org
mtllib Trim.mtl
o FloorTrim_Plane.023
v -0.059108 -0.261405 -0.307339
v -0.023893 -0.164032 -0.307339
v -0.014046 -0.154186 -0.307339
v 0.013306 -0.009768 -0.307339
v 0.022059 0.000079 -0.307339
v 0.023153 0.018678 -0.307339
v 0.013306 0.031807 -0.307339
v -0.003105 0.040560 -0.307339
v -0.014046 0.054783 -0.307339
v -0.011858 0.071194 -0.307339
v 0.001271 0.082135 -0.307339
v 0.016588 0.095264 -0.307339
v 0.010024 0.104017 -0.307339
v 0.010024 0.117145 -0.307339
v 0.017682 0.124804 -0.307339
v 0.024247 0.140121 -0.307339
v 0.029717 0.153250 -0.307339
v 0.043940 0.156532 -0.307339
v -0.059108 -0.261405 0.307339
v -0.023893 -0.164032 0.307339
v -0.014046 -0.154186 0.307339
v 0.013306 -0.009767 0.307339
v 0.022059 0.000079 0.307339
v 0.023153 0.018679 0.307339
v 0.013306 0.031807 0.307339
v -0.003105 0.040560 0.307339
v -0.014046 0.054783 0.307339
v -0.011858 0.071194 0.307339
v 0.001271 0.082135 0.307339
v 0.016588 0.095264 0.307339
v 0.010024 0.104017 0.307339
v 0.010024 0.117145 0.307339
v 0.017682 0.124804 0.307339
v 0.024247 0.140121 0.307339
v 0.029717 0.153250 0.307339
v 0.043940 0.156532 0.307339
v -0.026297 -0.172847 -0.307339
v -0.030513 -0.176067 -0.307339
v -0.054676 -0.176067 -0.307339
v -0.058057 -0.179405 -0.307339
v -0.003105 -0.147565 -0.307339
v -0.006302 -0.151863 -0.307339
v 0.000061 -0.014182 -0.307339
v -0.003105 -0.018576 -0.307339
v 0.017967 0.089750 -0.307339
v 0.015538 0.085702 -0.307339
v 0.025780 0.132454 -0.307339
v 0.023449 0.127687 -0.307339
v -0.030513 -0.176067 0.307339
v -0.026297 -0.172847 0.307339
v -0.058057 -0.179405 0.307339
v -0.054676 -0.176067 0.307339
v -0.006302 -0.151863 0.307339
v -0.003105 -0.147565 0.307339
v -0.003105 -0.018576 0.307339
v 0.000061 -0.014182 0.307339
v 0.015538 0.085702 0.307339
v 0.017967 0.089750 0.307339
v 0.023449 0.127688 0.307339
v 0.025780 0.132454 0.307339
vt 0.000308 0.049301
vt 0.000308 0.025019
vt 0.999639 0.025025
vt 0.999639 0.049309
vt 0.000099 0.178649
vt 0.000234 0.161208
vt 0.999565 0.161218
vt 0.999430 0.178659
vt 0.000217 0.423343
vt 0.000217 0.400851
vt 0.999548 0.400853
vt 0.999548 0.423343
vt 0.000308 0.000099
vt 0.999639 0.000105
vt 0.000340 0.760932
vt 0.000372 0.743489
vt 0.999703 0.743492
vt 0.999671 0.760935
vt 0.000235 0.101625
vt 0.000347 0.084184
vt 0.999679 0.084192
vt 0.999566 0.101633
vt 0.000217 0.369043
vt 0.999548 0.369047
vt 0.000372 0.719715
vt 0.999703 0.719719
vt 0.000234 0.142530
vt 0.999566 0.142542
vt 0.000217 0.341026
vt 0.999548 0.341030
vt 0.000570 0.977070
vt 0.000570 0.837066
vt 0.999901 0.837066
vt 0.999901 0.977070
vt 0.000235 0.120116
vt 0.999566 0.120126
vt 0.000217 0.309273
vt 0.999549 0.309278
vt 0.000436 0.702273
vt 0.999767 0.702277
vt 0.000218 0.278638
vt 0.999549 0.278646
vt 0.000326 0.684832
vt 0.000326 0.464619
vt 0.999657 0.464622
vt 0.999657 0.684836
vt 0.000236 0.066743
vt 0.999567 0.066751
vt 0.000218 0.250373
vt 0.999549 0.250383
vt 0.000217 0.447177
vt 0.999548 0.447181
vt 0.000218 0.221196
vt 0.999550 0.221208
vt 0.000218 0.196090
vt 0.999550 0.196100
vt 0.999782 0.778376
vt 0.000451 0.778373
vt 0.000451 0.819625
vt 0.999782 0.819625
vn 0.9951 -0.0985 0.0000
vn 0.6453 -0.7639 0.0000
vn 0.9891 -0.1472 0.0000
vn 0.9029 0.4298 0.0000
vn 0.5505 -0.8348 0.0000
vn 0.9239 -0.3827 0.0000
vn 0.2248 -0.9744 0.0000
vn 0.8296 -0.5583 0.0000
vn 0.8649 -0.5019 0.0000
vn 0.5847 -0.8112 0.0000
vn 0.7102 -0.7040 0.0000
vn 0.9575 0.2882 0.0000
vn 0.5128 -0.8585 0.0000
vn 0.9487 0.3162 0.0000
vn 0.6508 0.7592 0.0000
vn 0.9999 -0.0128 0.0000
vn 0.9201 -0.3915 0.0000
vn 0.6461 0.7632 0.0000
vn 0.5739 -0.8189 0.0000
vn 0.9660 0.2586 0.0000
vn 0.9493 -0.3144 0.0000
vn 0.9516 -0.3072 0.0000
vn 0.9917 -0.1284 0.0000
vn 0.8755 -0.4832 0.0000
vn 0.5924 -0.8056 0.0000
vn 0.4527 -0.8916 0.0000
vn 0.5953 -0.8035 0.0000
vn 0.3204 -0.9473 0.0000
vn 0.3797 -0.9251 0.0000
usemtl (null)
s 1
f 16/1/1 17/2/2 35/3/2 34/4/1
f 45/5/3 12/6/4 30/7/4 58/8/3
f 4/9/5 5/10/6 23/11/6 22/12/5
f 17/2/2 18/13/7 36/14/7 35/3/2
f 37/15/8 2/16/9 20/17/9 50/18/8
f 15/19/10 48/20/11 59/21/11 33/22/10
f 5/10/6 6/23/12 24/24/12 23/11/6
f 2/16/9 3/25/13 21/26/13 20/17/9
f 12/6/4 13/27/14 31/28/14 30/7/4
f 6/23/12 7/29/15 25/30/15 24/24/12
f 1/31/16 40/32/17 51/33/17 19/34/16
f 13/27/14 14/35/6 32/36/6 31/28/14
f 7/29/15 8/37/18 26/38/18 25/30/15
f 3/25/13 42/39/19 53/40/19 21/26/13
f 14/35/6 15/19/10 33/22/10 32/36/6
f 8/37/18 9/41/20 27/42/20 26/38/18
f 41/43/21 44/44/22 55/45/22 54/46/21
f 47/47/23 16/1/1 34/4/1 60/48/23
f 9/41/20 10/49/24 28/50/24 27/42/20
f 43/51/25 4/9/5 22/12/5 56/52/25
f 10/49/24 11/53/26 29/54/26 28/50/24
f 11/53/26 46/55/27 57/56/27 29/54/26
f 45/5/3 58/8/3 57/56/27 46/55/27
f 37/15/8 50/18/8 49/57/28 38/58/28
f 51/33/17 40/32/17 39/59/29 52/60/29
f 41/43/21 54/46/21 53/40/19 42/39/19
f 47/47/23 60/48/23 59/21/11 48/20/11
f 43/51/25 56/52/25 55/45/22 44/44/22
f 39/59/29 38/58/28 49/57/28 52/60/29
